<?xml version="1.0" encoding="UTF-8"?>
<!DOCTYPE svg PUBLIC "-//W3C//DTD SVG 1.1//EN" "http://www.w3.org/Graphics/SVG/1.1/DTD/svg11.dtd">
<!-- Creator: CorelDRAW X7 -->
<svg xmlns="http://www.w3.org/2000/svg" xml:space="preserve" width="53.9922mm" height="20.8181mm" version="1.1" style="shape-rendering:geometricPrecision; text-rendering:geometricPrecision; image-rendering:optimizeQuality; fill-rule:evenodd; clip-rule:evenodd"
viewBox="0 0 2130 821"
 xmlns:xlink="http://www.w3.org/1999/xlink">
 <defs>
  <style type="text/css">
   <![CDATA[
    .fil0 {fill:#2B2A29}
    .fil1 {fill:#06508E}
    .fil2 {fill:#4CC4D4}
    .fil3 {fill:#EDC23D}
    .fil4 {fill:#06508E;fill-rule:nonzero}
   ]]>
  </style>
 </defs>
 <g id="Layer_x0020_1">
  <metadata id="CorelCorpID_0Corel-Layer"/>
  <g id="_614990160">
   <path class="fil0" d="M210 516c2,5 4,9 7,13 5,10 12,19 18,28 -11,0 -19,-5 -23,-11 -2,-4 -4,-8 -5,-12 0,-4 0,-8 1,-12 0,-2 1,-4 2,-6z"/>
   <path class="fil1" d="M94 673c-15,-17 -28,-36 -40,-56 -36,-63 -54,-132 -54,-208 0,-75 18,-144 54,-206 36,-63 86,-112 148,-149 63,-36 133,-54 209,-54 47,0 92,7 135,21 42,15 81,35 115,61 6,5 10,11 10,17 0,5 -2,10 -6,15l-79 104c-6,6 -12,9 -17,9 -5,0 -10,-1 -15,-5 -21,-14 -44,-25 -68,-34 -25,-8 -50,-13 -75,-13 -40,0 -77,11 -112,31 -35,21 -62,49 -83,85 -20,36 -31,76 -31,119 0,22 3,43 9,63 -15,10 -23,24 -27,39 -2,10 -2,20 -1,29 2,10 6,19 11,27 3,5 6,9 10,12 -15,6 -28,14 -40,25 -8,8 -19,22 -27,34 -3,4 -5,7 -7,10 -5,6 -7,9 -10,12l0 0c-3,4 -6,8 -9,12z"/>
   <path class="fil0" d="M177 724c9,-13 17,-27 26,-42 16,-25 33,-52 43,-68 -8,-1 -16,-1 -25,0 -16,3 -33,9 -45,21 -5,5 -15,18 -22,28 -3,4 -6,8 -8,11 -2,2 -6,7 -10,13l0 0 -1 1c7,7 14,14 22,20 7,6 13,11 20,16z"/>
   <path class="fil1" d="M607 778l-77 -133c-13,-25 -26,-43 -47,-58 -50,-33 -117,-30 -162,6 -19,16 -31,37 -45,60 -14,22 -25,44 -39,67l-38 68 10 -18c62,34 129,51 202,51 47,0 92,-7 135,-22 20,-7 40,-15 59,-25l2 4z"/>
   <path class="fil1" d="M395 370c-45,6 -83,43 -77,94 6,44 47,81 99,73 44,-6 81,-44 74,-95 -5,-42 -47,-78 -96,-72z"/>
   <path class="fil2" d="M184 754c25,-42 88,-140 91,-151 -26,-19 -82,-13 -113,17 -10,9 -24,29 -33,41 -7,9 -14,19 -21,28 22,25 47,47 76,65z"/>
   <path class="fil3" d="M534 603c2,7 82,140 94,157 10,-6 20,-13 30,-20 23,-21 51,-51 54,-62 -10,-11 -24,-22 -35,-32 -12,-10 -24,-22 -36,-32 -27,-22 -70,-29 -107,-11z"/>
   <path class="fil2" d="M227 482c-65,12 -48,106 18,95 65,-10 48,-108 -18,-95z"/>
   <path class="fil3" d="M556 483c-67,18 -38,108 23,94 25,-6 45,-30 38,-59 -6,-23 -32,-43 -61,-35z"/>
   <path class="fil4" d="M943 382c-21,0 -39,-4 -56,-14 -17,-10 -31,-24 -40,-41 -10,-17 -15,-35 -15,-56 0,-20 5,-38 15,-55 9,-17 23,-31 40,-40 17,-10 35,-15 56,-15 13,0 25,2 36,6 12,4 22,9 31,16 2,1 3,3 3,5 0,1 -1,2 -2,4l-21 28c-2,1 -3,2 -5,2 -1,0 -2,0 -4,-1 -5,-4 -11,-7 -18,-9 -7,-3 -13,-4 -20,-4 -11,0 -21,3 -30,9 -10,5 -17,13 -23,23 -5,9 -8,20 -8,32 0,11 3,22 8,32 6,9 13,17 23,23 9,5 19,8 30,8 7,0 14,-1 20,-3 6,-2 12,-5 19,-10 1,-1 2,-1 4,-1 1,0 3,1 4,2l21 28c1,2 2,3 2,5 0,1 -1,2 -2,4 -10,7 -20,13 -32,17 -11,3 -23,5 -36,5z"/>
   <path id="1" class="fil4" d="M1230 372c1,1 1,1 1,2 0,2 -1,3 -1,4 -1,0 -3,1 -4,1l-38 0c-4,0 -6,-2 -7,-5l-12 -32 -81 0 -11 32c-1,3 -4,5 -7,5l-38 0c-2,0 -3,-1 -4,-1 -1,-1 -2,-2 -2,-4 0,-1 0,-1 1,-2l78 -203c1,-3 4,-4 7,-4l33 0c4,0 6,1 7,4l78 203zm-75 -71l-24 -69 -2 -9 -3 9 -24 69 53 0z"/>
   <path id="2" class="fil4" d="M1264 379c-4,0 -6,-2 -6,-6l0 -202c0,-4 2,-6 6,-6l85 0c14,0 27,3 38,9 12,6 21,15 27,25 6,11 9,24 9,38 0,14 -3,25 -9,35 -5,10 -13,18 -24,24l38 75c0,2 0,3 0,4 0,1 0,2 -1,3 -1,0 -2,1 -4,1l-43 0c-3,0 -5,-2 -7,-5l-30 -65c-2,0 -5,0 -8,0l-28 0 0 64c0,4 -2,6 -6,6l-37 0zm80 -112c6,0 11,-2 15,-4 5,-3 8,-7 10,-11 3,-5 4,-10 4,-15 0,-6 -1,-11 -4,-15 -2,-5 -6,-8 -10,-10 -4,-2 -9,-3 -14,-3l-38 0 0 58 37 0z"/>
   <path id="3" class="fil4" d="M1617 373c0,4 -2,6 -6,6l-144 0c-4,0 -6,-2 -6,-6l0 -202c0,-4 2,-6 6,-6l142 0c4,0 6,2 6,6l0 33c0,4 -2,6 -6,6l-99 0 0 38 76 0c4,0 6,2 6,6l0 30c0,5 -2,7 -6,7l-76 0 0 43 101 0c4,0 6,2 6,6l0 33z"/>
   <path id="4" class="fil4" d="M1808 373c0,4 -2,6 -6,6l-144 0c-5,0 -7,-2 -7,-6l0 -202c0,-4 2,-6 7,-6l142 0c4,0 6,2 6,6l0 33c0,4 -2,6 -6,6l-99 0 0 38 76 0c4,0 6,2 6,6l0 30c0,5 -2,7 -6,7l-76 0 0 43 101 0c4,0 6,2 6,6l0 33z"/>
   <path id="5" class="fil4" d="M1848 379c-4,0 -6,-2 -6,-6l0 -202c0,-4 2,-6 6,-6l85 0c15,0 28,3 39,9 11,6 20,15 26,25 6,11 10,24 10,38 0,14 -3,25 -9,35 -6,10 -14,18 -25,24l38 75c0,2 1,3 1,4 0,1 -1,2 -2,3 -1,0 -2,1 -4,1l-42 0c-4,0 -6,-2 -7,-5l-31 -65c-2,0 -4,0 -8,0l-27 0 0 64c0,4 -2,6 -6,6l-38 0zm80 -112c6,0 11,-2 15,-4 5,-3 8,-7 11,-11 2,-5 4,-10 4,-15 0,-6 -2,-11 -4,-15 -3,-5 -6,-8 -11,-10 -4,-2 -9,-3 -14,-3l-37 0 0 58 36 0z"/>
   <path class="fil4" d="M969 651c0,4 -2,6 -6,6l-118 0c-4,0 -6,-2 -6,-6l0 -202c0,-4 2,-6 6,-6l15 0c4,0 6,2 6,6l0 182 97 0c4,0 6,2 6,6l0 14z"/>
   <path id="1" class="fil4" d="M1157 651c0,4 -2,6 -6,6l-140 0c-4,0 -6,-2 -6,-6l0 -202c0,-4 2,-6 6,-6l138 0c4,0 6,2 6,6l0 14c0,4 -2,6 -6,6l-117 0 0 63 94 0c4,0 6,2 6,6l0 13c0,5 -2,7 -6,7l-94 0 0 73 119 0c4,0 6,2 6,6l0 14z"/>
   <path id="2" class="fil4" d="M1229 651c0,4 -2,6 -6,6l-16 0c-4,0 -6,-2 -6,-6l0 -202c0,-4 2,-6 6,-6l18 0c2,0 3,0 4,1 1,0 2,1 3,3l122 165 0 -163c0,-4 2,-6 6,-6l15 0c4,0 6,2 6,6l0 202c0,4 -2,6 -6,6l-16 0c-1,0 -3,-1 -4,-1 -1,-1 -2,-2 -3,-3l-123 -167 0 165z"/>
   <path id="3" class="fil4" d="M1504 660c-16,0 -31,-3 -45,-9 -14,-6 -26,-14 -36,-25 -1,-1 -2,-3 -2,-4 0,-1 1,-3 3,-4l9 -10c1,-1 3,-2 4,-2 2,0 3,1 4,2 8,8 18,14 29,19 11,4 22,6 33,6 10,0 18,-1 26,-4 7,-2 13,-6 17,-12 4,-5 6,-12 6,-19 0,-8 -2,-14 -7,-19 -4,-5 -10,-9 -18,-12 -7,-3 -18,-6 -32,-10 -13,-3 -24,-7 -33,-11 -9,-4 -17,-10 -24,-18 -6,-8 -9,-18 -9,-30 0,-11 3,-21 9,-30 6,-9 14,-16 26,-21 11,-5 24,-7 38,-7 13,0 25,2 37,6 11,4 22,10 31,18 2,1 2,2 2,4 0,1 0,3 -1,4l-9 11c-1,1 -3,2 -4,2 -2,0 -3,0 -4,-2 -7,-5 -15,-9 -24,-12 -9,-3 -18,-5 -27,-5 -8,0 -16,2 -24,4 -7,3 -12,6 -17,11 -4,5 -6,11 -6,18 0,7 2,12 7,17 4,4 10,8 16,10 7,3 17,6 29,9 16,5 28,9 38,14 10,4 18,10 24,18 7,8 10,18 10,30 0,13 -3,24 -10,34 -7,9 -16,16 -28,21 -11,5 -24,8 -38,8z"/>
   <path class="fil4" d="M2057 181c0,1 0,1 -1,1l-7 0c-1,0 -1,0 -1,-1l0 -38 -13 0c-1,0 -1,-1 -1,-2l0 -6c0,-1 0,-1 1,-1l35 0c1,0 2,0 2,1l0 6c0,1 -1,2 -2,2l-13 0 0 38z"/>
   <path id="1" class="fil4" d="M2083 181c0,1 0,1 -1,1l-7 0c0,0 -1,0 -1,0 0,0 0,-1 0,-1l6 -46c0,-1 0,-1 1,-1l8 0c1,0 1,0 2,1l11 34 11 -34c0,-1 1,-1 2,-1l8 0c0,0 0,0 1,0 0,0 0,1 0,1l6 46c0,0 0,1 -1,1 0,0 0,0 -1,0l-6 0c-1,0 -2,0 -2,-1l-3 -32 -11 32c0,1 0,1 -1,1l-6 0c-1,0 -1,0 -2,-1l-10 -32 -4 32z"/>
  </g>
 </g>
</svg>
